<mxfile host="Electron" agent="Mozilla/5.0 (X11; Linux x86_64) AppleWebKit/537.36 (KHTML, like Gecko) draw.io/24.7.17 Chrome/130.0.6723.59 Electron/33.0.2 Safari/537.36" version="24.7.17">
  <diagram name="Page-1" id="dZloXorZg-XHg9RBnKnU">
    <mxGraphModel dx="457" dy="855" grid="1" gridSize="10" guides="1" tooltips="1" connect="1" arrows="1" fold="1" page="1" pageScale="1" pageWidth="1200" pageHeight="1920" math="0" shadow="0">
      <root>
        <mxCell id="0" />
        <mxCell id="1" parent="0" />
        <mxCell id="BOHG9Ne7DbCBtIwfmMdj-4" value="" style="whiteSpace=wrap;html=1;movable=1;resizable=1;rotatable=1;deletable=1;editable=1;locked=0;connectable=1;imageAspect=1;fillColor=#FFFFFF;shadow=1;" vertex="1" parent="1">
          <mxGeometry x="120" y="10" width="900" height="500" as="geometry" />
        </mxCell>
        <mxCell id="gEQxPkNnq145VixLKZXU-8" style="edgeStyle=orthogonalEdgeStyle;rounded=0;orthogonalLoop=1;jettySize=auto;html=1;strokeColor=#050505;" parent="1" source="gEQxPkNnq145VixLKZXU-1" target="gEQxPkNnq145VixLKZXU-2" edge="1">
          <mxGeometry relative="1" as="geometry" />
        </mxCell>
        <mxCell id="gEQxPkNnq145VixLKZXU-1" value="Title Screen" style="rounded=0;whiteSpace=wrap;html=1;" parent="1" vertex="1">
          <mxGeometry x="510" y="40" width="120" height="60" as="geometry" />
        </mxCell>
        <mxCell id="gEQxPkNnq145VixLKZXU-9" style="edgeStyle=orthogonalEdgeStyle;rounded=0;orthogonalLoop=1;jettySize=auto;html=1;strokeColor=#050505;" parent="1" source="gEQxPkNnq145VixLKZXU-2" target="gEQxPkNnq145VixLKZXU-5" edge="1">
          <mxGeometry relative="1" as="geometry" />
        </mxCell>
        <mxCell id="gEQxPkNnq145VixLKZXU-10" style="edgeStyle=orthogonalEdgeStyle;rounded=0;orthogonalLoop=1;jettySize=auto;html=1;strokeColor=#050505;" parent="1" source="gEQxPkNnq145VixLKZXU-2" target="gEQxPkNnq145VixLKZXU-4" edge="1">
          <mxGeometry relative="1" as="geometry" />
        </mxCell>
        <mxCell id="gEQxPkNnq145VixLKZXU-11" style="edgeStyle=orthogonalEdgeStyle;rounded=0;orthogonalLoop=1;jettySize=auto;html=1;strokeColor=#050505;" parent="1" source="gEQxPkNnq145VixLKZXU-2" target="gEQxPkNnq145VixLKZXU-6" edge="1">
          <mxGeometry relative="1" as="geometry" />
        </mxCell>
        <mxCell id="gEQxPkNnq145VixLKZXU-12" style="edgeStyle=orthogonalEdgeStyle;rounded=0;orthogonalLoop=1;jettySize=auto;html=1;strokeColor=#050505;" parent="1" source="gEQxPkNnq145VixLKZXU-2" target="gEQxPkNnq145VixLKZXU-7" edge="1">
          <mxGeometry relative="1" as="geometry" />
        </mxCell>
        <mxCell id="gEQxPkNnq145VixLKZXU-13" style="edgeStyle=orthogonalEdgeStyle;rounded=0;orthogonalLoop=1;jettySize=auto;html=1;strokeColor=#050505;" parent="1" source="gEQxPkNnq145VixLKZXU-2" target="gEQxPkNnq145VixLKZXU-3" edge="1">
          <mxGeometry relative="1" as="geometry" />
        </mxCell>
        <mxCell id="gEQxPkNnq145VixLKZXU-2" value="Role Selection" style="rounded=0;whiteSpace=wrap;html=1;" parent="1" vertex="1">
          <mxGeometry x="510" y="150" width="120" height="60" as="geometry" />
        </mxCell>
        <mxCell id="wuEft2-r40U0e4a1XVeZ-6" style="edgeStyle=orthogonalEdgeStyle;rounded=0;orthogonalLoop=1;jettySize=auto;html=1;strokeColor=#050505;" parent="1" source="gEQxPkNnq145VixLKZXU-3" target="wuEft2-r40U0e4a1XVeZ-1" edge="1">
          <mxGeometry relative="1" as="geometry" />
        </mxCell>
        <mxCell id="gEQxPkNnq145VixLKZXU-3" value="Tower" style="rounded=0;whiteSpace=wrap;html=1;" parent="1" vertex="1">
          <mxGeometry x="170" y="290" width="120" height="60" as="geometry" />
        </mxCell>
        <mxCell id="wuEft2-r40U0e4a1XVeZ-7" style="edgeStyle=orthogonalEdgeStyle;rounded=0;orthogonalLoop=1;jettySize=auto;html=1;strokeColor=#050505;" parent="1" source="gEQxPkNnq145VixLKZXU-4" target="wuEft2-r40U0e4a1XVeZ-2" edge="1">
          <mxGeometry relative="1" as="geometry" />
        </mxCell>
        <mxCell id="gEQxPkNnq145VixLKZXU-4" value="Ground" style="rounded=0;whiteSpace=wrap;html=1;" parent="1" vertex="1">
          <mxGeometry x="340" y="290" width="120" height="60" as="geometry" />
        </mxCell>
        <mxCell id="wuEft2-r40U0e4a1XVeZ-8" style="edgeStyle=orthogonalEdgeStyle;rounded=0;orthogonalLoop=1;jettySize=auto;html=1;strokeColor=#050505;" parent="1" source="gEQxPkNnq145VixLKZXU-5" target="wuEft2-r40U0e4a1XVeZ-3" edge="1">
          <mxGeometry relative="1" as="geometry" />
        </mxCell>
        <mxCell id="gEQxPkNnq145VixLKZXU-5" value="Center" style="rounded=0;whiteSpace=wrap;html=1;" parent="1" vertex="1">
          <mxGeometry x="510" y="290" width="120" height="60" as="geometry" />
        </mxCell>
        <mxCell id="wuEft2-r40U0e4a1XVeZ-9" style="edgeStyle=orthogonalEdgeStyle;rounded=0;orthogonalLoop=1;jettySize=auto;html=1;strokeColor=#050505;" parent="1" source="gEQxPkNnq145VixLKZXU-6" target="wuEft2-r40U0e4a1XVeZ-4" edge="1">
          <mxGeometry relative="1" as="geometry" />
        </mxCell>
        <mxCell id="gEQxPkNnq145VixLKZXU-6" value="Approach" style="rounded=0;whiteSpace=wrap;html=1;" parent="1" vertex="1">
          <mxGeometry x="680" y="290" width="120" height="60" as="geometry" />
        </mxCell>
        <mxCell id="wuEft2-r40U0e4a1XVeZ-10" style="edgeStyle=orthogonalEdgeStyle;rounded=0;orthogonalLoop=1;jettySize=auto;html=1;strokeColor=#050505;" parent="1" source="gEQxPkNnq145VixLKZXU-7" target="wuEft2-r40U0e4a1XVeZ-5" edge="1">
          <mxGeometry relative="1" as="geometry" />
        </mxCell>
        <mxCell id="gEQxPkNnq145VixLKZXU-7" value="Departure" style="rounded=0;whiteSpace=wrap;html=1;" parent="1" vertex="1">
          <mxGeometry x="850" y="290" width="120" height="60" as="geometry" />
        </mxCell>
        <mxCell id="wuEft2-r40U0e4a1XVeZ-1" value="Tower Commands" style="rounded=0;whiteSpace=wrap;html=1;" parent="1" vertex="1">
          <mxGeometry x="170" y="380" width="120" height="60" as="geometry" />
        </mxCell>
        <mxCell id="wuEft2-r40U0e4a1XVeZ-2" value="Ground Commands" style="rounded=0;whiteSpace=wrap;html=1;" parent="1" vertex="1">
          <mxGeometry x="340" y="380" width="120" height="60" as="geometry" />
        </mxCell>
        <mxCell id="wuEft2-r40U0e4a1XVeZ-3" value="Center Commands" style="rounded=0;whiteSpace=wrap;html=1;" parent="1" vertex="1">
          <mxGeometry x="510" y="380" width="120" height="60" as="geometry" />
        </mxCell>
        <mxCell id="wuEft2-r40U0e4a1XVeZ-4" value="Approach Commands" style="rounded=0;whiteSpace=wrap;html=1;" parent="1" vertex="1">
          <mxGeometry x="680" y="380" width="120" height="60" as="geometry" />
        </mxCell>
        <mxCell id="wuEft2-r40U0e4a1XVeZ-5" value="Departure Commands" style="rounded=0;whiteSpace=wrap;html=1;" parent="1" vertex="1">
          <mxGeometry x="850" y="380" width="120" height="60" as="geometry" />
        </mxCell>
      </root>
    </mxGraphModel>
  </diagram>
</mxfile>
